g Italian_0
v 0 -0.0325942 -0.3571444
v 0 0.02319812 -0.3571424
v 0 0.04165279 -0.499999
v 0 -0.01413949 -0.500001
v 0 -0.04460397 -0.2142859
v 0 0.02319812 -0.3571424
v 0 -0.0325942 -0.3571444
v 0 0.0111883 -0.2142839
v 0 -0.04999132 -0.07142925
v 0 0.005801036 -0.07142735
v 0 -0.04999132 0.07142735
v 0 0.005801036 0.07142925
v 0 -0.04460397 0.2142859
v 0 0.0111883 0.2142878
v 0 -0.0325942 0.3571424
v 0 0.02319812 0.3571444
v 0 -0.01413949 0.499999
v 0 0.04165279 0.500001
v 0 -0.05029959 0.500001
v 0 0.0301866 0.500001
v 0 -0.003032211 0.3571444
v 0 -0.2042478 0.3571424
v 0 -0.02465013 0.2142878
v 0 -0.2258659 0.2142859
v 0 -0.0343473 0.07142925
v 0 -0.2355628 0.07142735
v 0 -0.0343473 -0.07142735
v 0 -0.2355628 -0.07142925
v 0 -0.02465013 -0.2142839
v 0 -0.2258659 -0.2142859
v 0 -0.003032211 -0.3571424
v 0 -0.2042478 -0.3571444
v 0 -0.05029959 -0.499999
v 0 0.0301866 -0.499999
v 0 -0.0325942 -0.3571444
v 0 0.02319812 -0.3571424
v 0 0.04165279 -0.499999
v 0 -0.01413949 -0.500001
v 0 -0.04460397 -0.2142859
v 0 0.02319812 -0.3571424
v 0 -0.0325942 -0.3571444
v 0 0.0111883 -0.2142839
v 0 -0.04999132 -0.07142925
v 0 0.005801036 -0.07142735
v 0 -0.04999132 0.07142735
v 0 0.005801036 0.07142925
v 0 -0.04460397 0.2142859
v 0 0.0111883 0.2142878
v 0 -0.0325942 0.3571424
v 0 0.02319812 0.3571444
v 0 -0.01413949 0.499999
v 0 0.04165279 0.500001
v 0 -0.05029959 0.500001
v 0 0.0301866 0.500001
v 0 -0.003032211 0.3571444
v 0 -0.2042478 0.3571424
v 0 -0.02465013 0.2142878
v 0 -0.2258659 0.2142859
v 0 -0.0343473 0.07142925
v 0 -0.2355628 0.07142735
v 0 -0.0343473 -0.07142735
v 0 -0.2355628 -0.07142925
v 0 -0.02465013 -0.2142839
v 0 -0.2258659 -0.2142859
v 0 -0.003032211 -0.3571424
v 0 -0.2042478 -0.3571444
v 0 -0.05029959 -0.499999
v 0 0.0301866 -0.499999
vt 0.8750418 4.300781
vt 0.8750418 4.285156
vt 0.8750299 4.285156
vt 0.8750299 4.300781
vt 0.8750179 4.285156
vt 0.8750299 4.300781
vt 0.8750299 4.285156
vt 0.8750179 4.300781
vt 0.875006 4.285156
vt 0.875006 4.300781
vt 0.874994 4.285156
vt 0.874994 4.300781
vt 0.8749821 4.285156
vt 0.8749821 4.300781
vt 0.8749701 4.285156
vt 0.8749701 4.300781
vt 0.8749582 4.285156
vt 0.8749582 4.300781
vt 0.6992188 4.238281
vt 0.6992188 4.253906
vt 0.7260045 4.253906
vt 0.7260045 5.214844
vt 0.7527902 4.253906
vt 0.7527902 5.214844
vt 0.7795759 4.253906
vt 0.7795759 5.214844
vt 0.8063617 4.253906
vt 0.8063617 5.214844
vt 0.8331473 4.253906
vt 0.8331473 5.214844
vt 0.859933 4.253906
vt 0.859933 5.214844
vt 0.8867188 4.238281
vt 0.8867188 4.253906
vt 0.8750418 6.300781
vt 0.8750418 6.285156
vt 0.8750299 6.285156
vt 0.8750299 6.300781
vt 0.8750179 6.285156
vt 0.8750299 6.300781
vt 0.8750299 6.285156
vt 0.8750179 6.300781
vt 0.875006 6.285156
vt 0.875006 6.300781
vt 0.874994 6.285156
vt 0.874994 6.300781
vt 0.8749821 6.285156
vt 0.8749821 6.300781
vt 0.8749701 6.285156
vt 0.8749701 6.300781
vt 0.8749582 6.285156
vt 0.8749582 6.300781
vt 0.6992188 6.238281
vt 0.6992188 6.253906
vt 0.7260045 6.253906
vt 0.7260045 7.214844
vt 0.7527902 6.253906
vt 0.7527902 7.214844
vt 0.7795759 6.253906
vt 0.7795759 7.214844
vt 0.8063617 6.253906
vt 0.8063617 7.214844
vt 0.8331473 6.253906
vt 0.8331473 7.214844
vt 0.859933 6.253906
vt 0.859933 7.214844
vt 0.8867188 6.238281
vt 0.8867188 6.253906
vn 1 0 0
vn 1 0 0
vn 1 0 0
vn 1 0 0
vn 1 0 0
vn 1 0 0
vn 1 0 0
vn 1 0 0
vn 1 0 0
vn 1 0 0
vn 1 0 0
vn 1 0 0
vn 1 0 0
vn 1 0 0
vn 1 0 0
vn 1 0 0
vn 1 0 0
vn 1 0 0
vn 1 0 0
vn 1 0 0
vn 1 0 0
vn 1 0 0
vn 1 0 0
vn 1 0 0
vn 1 0 0
vn 1 0 0
vn 1 0 0
vn 1 0 0
vn 1 0 0
vn 1 0 0
vn 1 0 0
vn 1 0 0
vn 1 0 0
vn 1 0 0
vn -1 0 0
vn -1 0 0
vn -1 0 0
vn -1 0 0
vn -1 0 0
vn -1 0 0
vn -1 0 0
vn -1 0 0
vn -1 0 0
vn -1 0 0
vn -1 0 0
vn -1 0 0
vn -1 0 0
vn -1 0 0
vn -1 0 0
vn -1 0 0
vn -1 0 0
vn -1 0 0
vn -1 0 0
vn -1 0 0
vn -1 0 0
vn -1 0 0
vn -1 0 0
vn -1 0 0
vn -1 0 0
vn -1 0 0
vn -1 0 0
vn -1 0 0
vn -1 0 0
vn -1 0 0
vn -1 0 0
vn -1 0 0
vn -1 0 0
vn -1 0 0
g Italian_0_0
f 3/3/3 2/2/2 1/1/1
f 4/4/4 3/3/3 1/1/1
f 7/7/7 6/6/6 5/5/5
f 6/6/6 8/8/8 5/5/5
f 5/5/5 8/8/8 9/9/9
f 8/8/8 10/10/10 9/9/9
f 9/9/9 10/10/10 11/11/11
f 10/10/10 12/12/12 11/11/11
f 11/11/11 12/12/12 13/13/13
f 12/12/12 14/14/14 13/13/13
f 13/13/13 14/14/14 15/15/15
f 14/14/14 16/16/16 15/15/15
f 15/15/15 16/16/16 17/17/17
f 16/16/16 18/18/18 17/17/17
f 21/21/21 20/20/20 19/19/19
f 22/22/22 21/21/21 19/19/19
f 23/23/23 21/21/21 22/22/22
f 24/24/24 23/23/23 22/22/22
f 25/25/25 23/23/23 24/24/24
f 26/26/26 25/25/25 24/24/24
f 27/27/27 25/25/25 26/26/26
f 28/28/28 27/27/27 26/26/26
f 29/29/29 27/27/27 28/28/28
f 30/30/30 29/29/29 28/28/28
f 31/31/31 29/29/29 30/30/30
f 32/32/32 31/31/31 30/30/30
f 33/33/33 31/31/31 32/32/32
f 33/33/33 34/34/34 31/31/31
f 36/36/36 37/37/37 35/35/35
f 37/37/37 38/38/38 35/35/35
f 40/40/40 41/41/41 39/39/39
f 42/42/42 40/40/40 39/39/39
f 42/42/42 39/39/39 43/43/43
f 44/44/44 42/42/42 43/43/43
f 44/44/44 43/43/43 45/45/45
f 46/46/46 44/44/44 45/45/45
f 46/46/46 45/45/45 47/47/47
f 48/48/48 46/46/46 47/47/47
f 48/48/48 47/47/47 49/49/49
f 50/50/50 48/48/48 49/49/49
f 50/50/50 49/49/49 51/51/51
f 52/52/52 50/50/50 51/51/51
f 54/54/54 55/55/55 53/53/53
f 55/55/55 56/56/56 53/53/53
f 55/55/55 57/57/57 56/56/56
f 57/57/57 58/58/58 56/56/56
f 57/57/57 59/59/59 58/58/58
f 59/59/59 60/60/60 58/58/58
f 59/59/59 61/61/61 60/60/60
f 61/61/61 62/62/62 60/60/60
f 61/61/61 63/63/63 62/62/62
f 63/63/63 64/64/64 62/62/62
f 63/63/63 65/65/65 64/64/64
f 65/65/65 66/66/66 64/64/64
f 65/65/65 67/67/67 66/66/66
f 68/68/68 67/67/67 65/65/65
