g Italian_7
v 0 -0.04163783 0.500001
v 0 0.03884836 0.500001
v 0 0.005629553 0.3571444
v 0 -0.195586 0.3571424
v 0 -0.01598836 0.2142878
v 0 -0.2172041 0.2142859
v 0 -0.02568554 0.07142925
v 0 -0.2269011 0.07142735
v 0 -0.02568554 -0.07142735
v 0 -0.2269011 -0.07142925
v 0 -0.01598836 -0.2142839
v 0 -0.2172041 -0.2142859
v 0 0.005629553 -0.3571424
v 0 -0.195586 -0.3571444
v 0 -0.04163783 -0.499999
v 0 0.03884836 -0.499999
v 0 -0.04163783 0.500001
v 0 0.03884836 0.500001
v 0 0.005629553 0.3571444
v 0 -0.195586 0.3571424
v 0 -0.01598836 0.2142878
v 0 -0.2172041 0.2142859
v 0 -0.02568554 0.07142925
v 0 -0.2269011 0.07142735
v 0 -0.02568554 -0.07142735
v 0 -0.2269011 -0.07142925
v 0 -0.01598836 -0.2142839
v 0 -0.2172041 -0.2142859
v 0 0.005629553 -0.3571424
v 0 -0.195586 -0.3571444
v 0 -0.04163783 -0.499999
v 0 0.03884836 -0.499999
vt 0.6992188 4.238281
vt 0.6992188 4.253906
vt 0.7260045 4.253906
vt 0.7260045 5.214844
vt 0.7527902 4.253906
vt 0.7527902 5.214844
vt 0.7795759 4.253906
vt 0.7795759 5.214844
vt 0.8063617 4.253906
vt 0.8063617 5.214844
vt 0.8331473 4.253906
vt 0.8331473 5.214844
vt 0.859933 4.253906
vt 0.859933 5.214844
vt 0.8867188 4.238281
vt 0.8867188 4.253906
vt 0.6992188 6.238281
vt 0.6992188 6.253906
vt 0.7260045 6.253906
vt 0.7260045 7.214844
vt 0.7527902 6.253906
vt 0.7527902 7.214844
vt 0.7795759 6.253906
vt 0.7795759 7.214844
vt 0.8063617 6.253906
vt 0.8063617 7.214844
vt 0.8331473 6.253906
vt 0.8331473 7.214844
vt 0.859933 6.253906
vt 0.859933 7.214844
vt 0.8867188 6.238281
vt 0.8867188 6.253906
vn 1 0 0
vn 1 0 0
vn 1 0 0
vn 1 0 0
vn 1 0 0
vn 1 0 0
vn 1 0 0
vn 1 0 0
vn 1 0 0
vn 1 0 0
vn 1 0 0
vn 1 0 0
vn 1 0 0
vn 1 0 0
vn 1 0 0
vn 1 0 0
vn -1 0 0
vn -1 0 0
vn -1 0 0
vn -1 0 0
vn -1 0 0
vn -1 0 0
vn -1 0 0
vn -1 0 0
vn -1 0 0
vn -1 0 0
vn -1 0 0
vn -1 0 0
vn -1 0 0
vn -1 0 0
vn -1 0 0
vn -1 0 0
g Italian_7_0
f 3/3/3 2/2/2 1/1/1
f 4/4/4 3/3/3 1/1/1
f 5/5/5 3/3/3 4/4/4
f 6/6/6 5/5/5 4/4/4
f 7/7/7 5/5/5 6/6/6
f 8/8/8 7/7/7 6/6/6
f 9/9/9 7/7/7 8/8/8
f 10/10/10 9/9/9 8/8/8
f 11/11/11 9/9/9 10/10/10
f 12/12/12 11/11/11 10/10/10
f 13/13/13 11/11/11 12/12/12
f 14/14/14 13/13/13 12/12/12
f 15/15/15 13/13/13 14/14/14
f 15/15/15 16/16/16 13/13/13
f 18/18/18 19/19/19 17/17/17
f 19/19/19 20/20/20 17/17/17
f 19/19/19 21/21/21 20/20/20
f 21/21/21 22/22/22 20/20/20
f 21/21/21 23/23/23 22/22/22
f 23/23/23 24/24/24 22/22/22
f 23/23/23 25/25/25 24/24/24
f 25/25/25 26/26/26 24/24/24
f 25/25/25 27/27/27 26/26/26
f 27/27/27 28/28/28 26/26/26
f 27/27/27 29/29/29 28/28/28
f 29/29/29 30/30/30 28/28/28
f 29/29/29 31/31/31 30/30/30
f 32/32/32 31/31/31 29/29/29
