g Plant_0
v 0.1100807 0.03415555 -0.1149559
v 0.1246281 0.1411305 -0.130167
v 0 0.1411305 -0.1840839
v 0 0.03415555 -0.1625977
v 0.1556683 0.03415555 0
v -0.1246281 0.1411305 -0.130167
v -0.1100807 0.03415555 -0.1149559
v 0.1762505 0.1411305 0
v 0.1100807 0.03415555 0.1149559
v -0.1762505 0.1411305 0
v -0.1556683 0.03415555 0
v 0.1246281 0.1411305 0.130167
v 0 0.03415555 0.1625977
v -0.1246281 0.1411305 0.130167
v -0.1100807 0.03415555 0.1149559
v 0 0.1411305 0.1840839
v 0 0.2765429 -0.1801186
v -0.1219435 0.2765429 -0.1273632
v 0.1219435 0.2765429 -0.1273632
v -0.1724539 0.2765429 0
v 0.1724539 0.2765429 0
v -0.1219435 0.2765429 0.1273632
v 0 0.2765429 0.1801205
v 0.1219435 0.2765429 0.1273632
v 0 0.3721752 -0.1113205
v -0.07536507 0.3721752 -0.07871437
v 0 0.4064418 0
v 0.07536507 0.3721752 -0.07871437
v -0.1065826 0.3721752 0
v 0.1065826 0.3721752 0
v -0.07536507 0.3721752 0.07871437
v 0.07536507 0.3721752 0.07871437
v 0 0.3721752 0.1113205
vt 1.910095 2.84303
vt 1.958504 0.8694252
vt 1.901281 0.8989702
vt 1.861103 2.858877
vt 1.865493 2.867686
vt 1.870919 0.9649024
vt 1.839854 2.914043
vt 1.900245 0.9025283
vt 1.839834 2.914082
vt 1.905173 0.9032888
vt 1.873272 2.867082
vt 1.871269 0.9647851
vt 1.873189 2.861999
vt 1.963371 0.8727623
vt 1.91803 2.84447
vt 1.906278 0.8997316
vt 1.941406 0.9414063
vt 1.917969 0.9921875
vt 1.992188 0.9140625
vt 1.9375 0.9492188
vt 1.9375 0.9453125
vt 1.992188 0.9140625
vt 1.945313 0.9375
vt 1.917969 0.9921875
vt 1.972656 0.9726563
vt 1.968752 0.9921875
vt 1.996094 0.9921875
vt 1.996094 0.96875
vt 1.972656 0.9726563
vt 1.972656 0.9726563
vt 1.996094 0.96875
vt 1.968748 0.9921875
vt 1.972656 0.9726563
vn 0.7099176 -0.192821 -0.6773751
vn 0.7201134 -0.06560197 -0.6907482
vn 0 -0.06692946 -0.9977577
vn 0 -0.1970055 -0.9804024
vn 0.9819909 -0.1889286 0
vn -0.7201135 -0.06560113 -0.6907482
vn -0.7099179 -0.1928199 -0.6773751
vn 0.9979275 -0.06434797 0
vn 0.7099179 -0.1928199 0.6773751
vn -0.9979275 -0.06434797 0
vn -0.9819909 -0.1889286 0
vn 0.7201154 -0.06560295 0.690746
vn 0 -0.1970055 0.9804024
vn -0.7201153 -0.06560379 0.6907461
vn -0.7099176 -0.192821 0.6773751
vn 0 -0.0669334 0.9977575
vn 0 0.2446239 -0.9696181
vn -0.699804 0.2408553 -0.6725051
vn 0.699804 0.2408549 -0.6725053
vn -0.9714566 0.237217 0
vn 0.9714566 0.237217 0
vn -0.6998051 0.2408545 0.6725042
vn 0 0.2446225 0.9696184
vn 0.6998051 0.2408549 0.6725041
vn 0 0.6799883 -0.733223
vn -0.5357172 0.6733049 -0.5095758
vn 0 1 0
vn 0.5357172 0.6733049 -0.5095759
vn -0.7451035 0.666949 0
vn 0.7451035 0.666949 0
vn -0.5357128 0.6733087 0.5095755
vn 0.5357128 0.6733087 0.5095755
vn 0 0.6799927 0.7332188
g Plant_0_0
f 3/3/3 2/2/2 1/1/1
f 4/4/4 3/3/3 1/1/1
f 1/1/1 2/2/2 5/5/5
f 6/6/6 3/3/3 4/4/4
f 7/7/7 6/6/6 4/4/4
f 2/2/2 8/8/8 5/5/5
f 5/5/5 8/8/8 9/9/9
f 10/10/10 6/6/6 7/7/7
f 11/11/11 10/10/10 7/7/7
f 8/8/8 12/12/12 9/9/9
f 9/9/9 12/12/12 13/13/13
f 14/14/14 10/10/10 11/11/11
f 15/15/15 14/14/14 11/11/11
f 13/13/13 16/16/16 15/15/15
f 12/12/12 16/16/16 13/13/13
f 16/16/16 14/14/14 15/15/15
f 3/3/3 17/17/17 2/2/2
f 6/6/6 18/18/18 3/3/3
f 18/18/18 17/17/17 3/3/3
f 2/2/2 19/19/19 8/8/8
f 17/17/17 19/19/19 2/2/2
f 10/10/10 20/20/20 6/6/6
f 20/20/20 18/18/18 6/6/6
f 8/8/8 21/21/21 12/12/12
f 19/19/19 21/21/21 8/8/8
f 14/14/14 22/22/22 10/10/10
f 22/22/22 20/20/20 10/10/10
f 16/16/16 23/23/23 14/14/14
f 23/23/23 22/22/22 14/14/14
f 12/12/12 24/24/24 16/16/16
f 21/21/21 24/24/24 12/12/12
f 24/24/24 23/23/23 16/16/16
f 17/17/17 25/25/25 19/19/19
f 18/18/18 26/26/26 17/17/17
f 26/26/26 25/25/25 17/17/17
f 26/26/26 27/27/27 25/25/25
f 25/25/25 28/28/28 19/19/19
f 19/19/19 28/28/28 21/21/21
f 25/25/25 27/27/27 28/28/28
f 29/29/29 26/26/26 18/18/18
f 20/20/20 29/29/29 18/18/18
f 29/29/29 27/27/27 26/26/26
f 28/28/28 30/30/30 21/21/21
f 21/21/21 30/30/30 24/24/24
f 28/28/28 27/27/27 30/30/30
f 31/31/31 29/29/29 20/20/20
f 31/31/31 27/27/27 29/29/29
f 22/22/22 31/31/31 20/20/20
f 30/30/30 32/32/32 24/24/24
f 24/24/24 32/32/32 23/23/23
f 30/30/30 27/27/27 32/32/32
f 33/33/33 31/31/31 22/22/22
f 23/23/23 33/33/33 22/22/22
f 32/32/32 33/33/33 23/23/23
f 33/33/33 27/27/27 31/31/31
f 32/32/32 27/27/27 33/33/33
