g Plant_1
v -0.0001811981 0.03323266 -0.2093735
v -0.1694937 0.2123556 -0.1768379
v -0.1419315 0.03323266 -0.1480522
v -0.0002937317 0.2123556 -0.2556667
v 0.1415691 0.03323266 -0.1480522
v 0.1727953 0.2123556 -0.1807842
v -0.0002937317 0.4241404 -0.2280731
v 0.1541147 0.4241404 -0.161272
v -0.1547031 0.4241404 -0.161272
v -0.0001811981 0.5947784 -0.1314945
v -0.08920479 0.5947784 -0.09298134
v -0.0001811981 0.6362815 0
v -0.1260796 0.5947784 0
v -0.2186613 0.4241404 0
v 0.08884239 0.5947784 -0.09298134
v -0.239625 0.2123556 0
v -0.1419315 0.03323266 -0.1480522
v -0.2006454 0.03323266 0
v -0.1694937 0.2123556 0.1768379
v -0.1419315 0.03323266 0.1480522
v -0.1547031 0.4241404 0.161272
v -0.08920479 0.5947784 0.09298134
v -0.0001811981 0.5947784 0.1314945
v -0.0002937317 0.4241404 0.2280731
v -0.1694937 0.2123556 0.1768379
v 0.08884239 0.5947784 0.09298134
v -0.0002937317 0.2123556 0.2556667
v -0.1419315 0.03323266 0.1480522
v -0.0001811981 0.03323266 0.2093735
v 0.1257172 0.5947784 0
v 0.1541147 0.4241404 0.161272
v 0.1727953 0.2123556 0.1807842
v 0.1415691 0.03323266 0.1480522
v 0.2180729 0.4241404 0
v 0.2444916 0.2123556 0
v 0.1415691 0.03323266 0.1480522
v 0.1727953 0.2123556 -0.1807842
v 0.2002831 0.03323266 0
v 0.1415691 0.03323266 -0.1480522
vt 2.817449 2.817071
vt 2.935621 0.8249393
vt 2.863165 2.787006
vt 2.863038 0.8669053
vt 2.783506 2.863538
vt 2.815487 0.9348077
vt 2.916848 0.9198412
vt 2.869481 0.9971397
vt 2.99286 0.8737031
vt 2.95387 0.9514244
vt 2.992462 0.9484452
vt 2.992188 0.9960938
vt 2.952333 0.9546034
vt 2.918571 0.9222308
vt 2.944641 0.9964622
vt 2.860266 0.8645021
vt 2.86952 2.793424
vt 2.826039 2.830216
vt 2.82146 0.9384743
vt 2.787576 2.877041
vt 2.870795 0.9936955
vt 2.9445 0.9951919
vt 2.954189 0.9510415
vt 2.917957 0.9194555
vt 2.818768 0.936062
vt 2.99245 0.9485133
vt 2.864148 0.8689525
vt 2.789528 2.866162
vt 2.824916 2.819062
vt 2.952061 0.9552085
vt 2.992896 0.8738822
vt 2.933649 0.8221657
vt 2.871321 2.789147
vt 2.917827 0.9226342
vt 2.867682 0.8693913
vt 2.866354 2.795388
vt 2.818347 0.9379949
vt 2.817311 2.830144
vt 2.786697 2.876304
vn -0.005970102 -0.2437363 -0.9698231
vn -0.7244769 -0.04113437 -0.6880707
vn -0.7094237 -0.2233433 -0.6684577
vn -0.005549283 -0.04117674 -0.9991365
vn 0.7018403 -0.2446071 -0.6690199
vn 0.7205212 -0.04000016 -0.6922782
vn -0.003924658 0.2636551 -0.9646091
vn 0.6963819 0.2620985 -0.6680993
vn -0.7009985 0.2514772 -0.6673532
vn 0.0001009095 0.5800735 -0.8145642
vn -0.593574 0.5731588 -0.5649415
vn 0 1 0
vn -0.8240736 0.5664828 0
vn -0.9697304 0.2441782 0
vn 0.5939181 0.5726706 -0.5650749
vn -0.9991696 -0.0407438 0
vn -0.7094237 -0.2233433 -0.6684577
vn -0.977132 -0.2126337 0
vn -0.7244769 -0.0411337 0.6880707
vn -0.7094238 -0.2233423 0.6684579
vn -0.7009985 0.2514779 0.667353
vn -0.5935745 0.5731593 0.5649405
vn 0.0001012411 0.5800742 0.8145637
vn -0.003924473 0.2636552 0.9646091
vn -0.7244769 -0.0411337 0.6880707
vn 0.5939188 0.5726704 0.5650746
vn -0.005549312 -0.0411764 0.9991365
vn -0.7094238 -0.2233423 0.6684579
vn -0.0059702 -0.2437354 0.9698234
vn 0.82454 0.5658038 0
vn 0.696382 0.262098 0.6680995
vn 0.7205212 -0.04000017 0.6922782
vn 0.7018405 -0.244606 0.66902
vn 0.9662475 0.2576157 0
vn 0.9992298 -0.03923861 0
vn 0.7018405 -0.244606 0.66902
vn 0.7205212 -0.04000016 -0.6922782
vn 0.9708697 -0.2396079 0
vn 0.7018403 -0.2446071 -0.6690199
g Plant_1_0
f 3/3/3 2/2/2 1/1/1
f 2/2/2 4/4/4 1/1/1
f 1/1/1 4/4/4 5/5/5
f 4/4/4 6/6/6 5/5/5
f 4/4/4 7/7/7 6/6/6
f 7/7/7 8/8/8 6/6/6
f 2/2/2 9/9/9 4/4/4
f 9/9/9 7/7/7 4/4/4
f 7/7/7 10/10/10 8/8/8
f 9/9/9 11/11/11 7/7/7
f 11/11/11 10/10/10 7/7/7
f 11/11/11 12/12/12 10/10/10
f 13/13/13 11/11/11 9/9/9
f 13/13/13 12/12/12 11/11/11
f 14/14/14 9/9/9 2/2/2
f 14/14/14 13/13/13 9/9/9
f 10/10/10 15/15/15 8/8/8
f 10/10/10 12/12/12 15/15/15
f 16/16/16 14/14/14 2/2/2
f 16/16/16 2/2/2 17/17/17
f 18/18/18 16/16/16 17/17/17
f 19/19/19 16/16/16 18/18/18
f 20/20/20 19/19/19 18/18/18
f 19/19/19 21/21/21 16/16/16
f 21/21/21 14/14/14 16/16/16
f 22/22/22 13/13/13 14/14/14
f 22/22/22 12/12/12 13/13/13
f 21/21/21 22/22/22 14/14/14
f 23/23/23 22/22/22 21/21/21
f 23/23/23 12/12/12 22/22/22
f 24/24/24 23/23/23 21/21/21
f 24/24/24 21/21/21 25/25/25
f 26/26/26 12/12/12 23/23/23
f 26/26/26 23/23/23 24/24/24
f 27/27/27 24/24/24 25/25/25
f 27/27/27 25/25/25 28/28/28
f 29/29/29 27/27/27 28/28/28
f 30/30/30 12/12/12 26/26/26
f 15/15/15 12/12/12 30/30/30
f 31/31/31 26/26/26 24/24/24
f 31/31/31 24/24/24 27/27/27
f 30/30/30 26/26/26 31/31/31
f 32/32/32 27/27/27 29/29/29
f 32/32/32 31/31/31 27/27/27
f 33/33/33 32/32/32 29/29/29
f 15/15/15 30/30/30 34/34/34
f 34/34/34 30/30/30 31/31/31
f 34/34/34 31/31/31 32/32/32
f 8/8/8 15/15/15 34/34/34
f 35/35/35 34/34/34 32/32/32
f 8/8/8 34/34/34 35/35/35
f 35/35/35 32/32/32 36/36/36
f 37/37/37 8/8/8 35/35/35
f 38/38/38 35/35/35 36/36/36
f 37/37/37 35/35/35 38/38/38
f 39/39/39 37/37/37 38/38/38
