g PlantGroup_2
v -0.09830941 0.007145971 -0.1593018
v -0.07012642 0.05776548 -0.1011848
v -0.06644333 0.007145971 -0.1065979
v 0.04167377 0.007145971 -0.1247406
v -0.1046246 0.05776548 -0.1582413
v -0.08539189 0.007145971 -0.2195206
v -0.09063996 0.05776548 -0.2234344
v -0.03525723 0.007145971 -0.2519798
v -0.03636444 0.05776548 -0.2585754
v 0.02272617 0.007145971 -0.2376633
v 0.02640926 0.05776548 -0.2430763
v 0.05459129 0.007145971 -0.1849594
v 0.06090652 0.05776548 -0.1860199
v 0.04692184 0.05776548 -0.1208267
v -0.06662834 0.1178572 -0.2055244
v -0.03130043 0.1178572 -0.2283974
v 0.00955879 0.1178572 -0.2183075
v -0.07573021 0.1178572 -0.1630936
v -0.02185906 0.1370338 -0.1721306
v 0.03201305 0.1178572 -0.1811714
v -0.05327595 0.1178572 -0.1259537
v 0.02291119 0.1178572 -0.1387367
v 0.09392654 0.01319599 -0.1000748
v 0.101842 0.123405 -0.1083374
v -0.001889116 0.123405 -0.1532173
v -0.001889116 0.01319599 -0.1415253
v 0.1336147 0.01319599 0
v -0.1056203 0.123405 -0.1083374
v -0.09770478 0.01319599 -0.1000748
v 0.1448079 0.123405 0
v 0.09392654 0.01319599 0.1000748
v -0.1485862 0.123405 0
v -0.1373929 0.01319599 0
v 0.101842 0.123405 0.1083374
v -0.001889116 0.01319599 0.1415253
v -0.1056203 0.123405 0.1083374
v -0.09770478 0.01319599 0.1000748
v -0.001889116 0.123405 0.1532173
v 0.06562912 0.2176394 -0.07051849
v -0.001889116 0.2176394 -0.09973145
v -0.001889116 0.2530516 0
v 0.09359466 0.2176394 0
v -0.06940735 0.2176394 -0.07051849
v 0.06562912 0.2176394 0.07051849
v -0.0973729 0.2176394 0
v -0.001889116 0.2176394 0.09973145
v -0.06940735 0.2176394 0.07051849
vt 1.905134 2.90326
vt 1.907898 0.9792992
vt 1.868636 2.962562
vt 1.96492 2.869906
vt 1.93853 0.9327912
vt 1.962865 2.869245
vt 1.991861 0.9156955
vt 1.897994 2.903086
vt 1.93286 0.9339299
vt 1.870515 2.955791
vt 1.906707 0.9767807
vt 1.907936 2.898216
vt 1.939931 0.9299923
vt 1.992672 0.9158338
vt 1.993117 0.9719978
vt 1.974294 0.9722064
vt 1.972465 0.9915429
vt 1.973873 0.9732267
vt 1.992612 0.992136
vt 1.974137 0.9729327
vt 1.972635 0.9915341
vt 1.993371 0.9720512
vt 0.8296911 2.925465
vt 0.8691841 0.9546019
vt 0.8996868 0.9070759
vt 0.8606952 2.8695
vt 0.8656244 2.868032
vt 0.9481772 0.8714367
vt 0.9192005 2.830405
vt 0.9030833 0.904488
vt 0.9205192 2.831667
vt 0.9040798 0.9052708
vt 0.8661731 2.870956
vt 0.9480961 0.8717316
vt 0.8609399 2.872329
vt 0.8714823 0.9544166
vt 0.8282987 2.930863
vt 0.9006559 0.9077373
vt 0.9627464 0.9933517
vt 0.9644012 0.9632698
vt 0.9930921 0.9920008
vt 0.9618124 0.9650284
vt 0.9922935 0.9615816
vt 0.9922668 0.9615899
vt 0.9621296 0.964178
vt 0.9647287 0.9625564
vt 0.962599 0.992277
vn -0.9784144 -0.1255089 0.1641725
vn -0.253677 0.1552661 0.9547463
vn -0.2317017 -0.1200966 0.965345
vn 0.5341294 -0.1200858 0.8368304
vn -0.9720618 0.1687808 0.1631228
vn -0.820613 -0.1281504 -0.5569306
vn -0.812959 0.1716176 -0.5564576
vn -0.1640807 -0.1309887 -0.9777114
vn -0.162953 0.1745734 -0.9710667
vn 0.5938813 -0.1281554 -0.7942803
vn 0.5867932 0.1716232 -0.7913401
vn 0.9784164 -0.1255034 -0.164165
vn 0.9720653 0.1687715 -0.163111
vn 0.5514334 0.1552616 0.8196433
vn -0.6815199 0.5681436 -0.4612411
vn -0.1353994 0.5748991 -0.8069436
vn 0.4936289 0.5681611 -0.658425
vn -0.8158938 0.5617611 0.1369004
vn 0.01203478 0.9973534 0.07170309
vn 0.8159004 0.561749 -0.1369104
vn -0.1936048 0.5193406 0.8323477
vn 0.4546891 0.519331 0.7235698
vn 0.7190664 -0.1031819 -0.6872388
vn 0.7115707 0.1570347 -0.684841
vn 0 0.1595104 -0.9871963
vn 0 -0.1054768 -0.9944218
vn 0.9948825 -0.1010387 0
vn -0.711571 0.1570329 -0.684841
vn -0.7190661 -0.1031845 -0.6872386
vn 0.9879726 0.1546291 0
vn 0.7190664 -0.1031806 0.6872389
vn -0.9879727 0.1546281 0
vn -0.9948823 -0.10104 0
vn 0.7115709 0.1570354 0.6848406
vn 0 -0.1054755 0.9944219
vn -0.7115706 0.1570341 0.6848412
vn -0.7190662 -0.1031832 0.6872387
vn 0 0.1595114 0.9871961
vn 0.5771465 0.6038424 -0.5497966
vn 0 0.6106222 -0.7919222
vn 0 1 0
vn 0.8019496 0.5973917 0
vn -0.5771467 0.6038425 -0.5497963
vn 0.5771468 0.6038424 0.5497962
vn -0.8019496 0.5973918 0
vn 0 0.610622 0.7919222
vn -0.5771461 0.6038423 0.5497971
g PlantGroup_2_0
f 3/3/3 2/2/2 1/1/1
f 3/3/3 4/4/4 2/2/2
f 2/2/2 5/5/5 1/1/1
f 1/1/1 5/5/5 6/6/6
f 5/5/5 7/7/7 6/6/6
f 6/6/6 7/7/7 8/8/8
f 7/7/7 9/9/9 8/8/8
f 8/8/8 9/9/9 10/10/10
f 9/9/9 11/11/11 10/10/10
f 10/10/10 11/11/11 12/12/12
f 12/12/12 13/13/13 4/4/4
f 11/11/11 13/13/13 12/12/12
f 4/4/4 14/14/14 2/2/2
f 13/13/13 14/14/14 4/4/4
f 15/15/15 7/7/7 5/5/5
f 16/16/16 9/9/9 7/7/7
f 15/15/15 16/16/16 7/7/7
f 17/17/17 11/11/11 9/9/9
f 16/16/16 17/17/17 9/9/9
f 18/18/18 5/5/5 2/2/2
f 18/18/18 15/15/15 5/5/5
f 15/15/15 19/19/19 16/16/16
f 16/16/16 19/19/19 17/17/17
f 18/18/18 19/19/19 15/15/15
f 17/17/17 20/20/20 11/11/11
f 20/20/20 13/13/13 11/11/11
f 17/17/17 19/19/19 20/20/20
f 21/21/21 18/18/18 2/2/2
f 2/2/2 14/14/14 21/21/21
f 21/21/21 19/19/19 18/18/18
f 22/22/22 14/14/14 13/13/13
f 20/20/20 22/22/22 13/13/13
f 20/20/20 19/19/19 22/22/22
f 14/14/14 22/22/22 21/21/21
f 21/21/21 22/22/22 19/19/19
f 25/25/25 24/24/24 23/23/23
f 26/26/26 25/25/25 23/23/23
f 23/23/23 24/24/24 27/27/27
f 28/28/28 25/25/25 26/26/26
f 29/29/29 28/28/28 26/26/26
f 24/24/24 30/30/30 27/27/27
f 27/27/27 30/30/30 31/31/31
f 32/32/32 28/28/28 29/29/29
f 33/33/33 32/32/32 29/29/29
f 30/30/30 34/34/34 31/31/31
f 31/31/31 34/34/34 35/35/35
f 36/36/36 32/32/32 33/33/33
f 37/37/37 36/36/36 33/33/33
f 35/35/35 38/38/38 37/37/37
f 34/34/34 38/38/38 35/35/35
f 38/38/38 36/36/36 37/37/37
f 39/39/39 24/24/24 25/25/25
f 40/40/40 25/25/25 28/28/28
f 40/40/40 39/39/39 25/25/25
f 40/40/40 41/41/41 39/39/39
f 39/39/39 42/42/42 24/24/24
f 42/42/42 30/30/30 24/24/24
f 39/39/39 41/41/41 42/42/42
f 43/43/43 40/40/40 28/28/28
f 43/43/43 28/28/28 32/32/32
f 43/43/43 41/41/41 40/40/40
f 42/42/42 44/44/44 30/30/30
f 44/44/44 34/34/34 30/30/30
f 42/42/42 41/41/41 44/44/44
f 45/45/45 43/43/43 32/32/32
f 45/45/45 32/32/32 36/36/36
f 45/45/45 41/41/41 43/43/43
f 44/44/44 46/46/46 34/34/34
f 46/46/46 38/38/38 34/34/34
f 44/44/44 41/41/41 46/46/46
f 47/47/47 45/45/45 36/36/36
f 47/47/47 36/36/36 38/38/38
f 46/46/46 47/47/47 38/38/38
f 47/47/47 41/41/41 45/45/45
f 46/46/46 41/41/41 47/47/47
