g Plant_3
v 0 -0.168844 -0.1324081
v 0 -0.2100629 0
v 0.09362507 -0.168844 -0.09362793
v 0 -0.06093132 -0.2142372
v 0.1514893 -0.06093132 -0.1514893
v 0.1324062 -0.168844 0
v 0 -0.2100629 0
v -0.1514893 -0.06093132 -0.1514893
v -0.09362507 -0.168844 -0.09362793
v 0 -0.2100629 0
v 0.2142382 -0.06093132 0
v 0.09362507 -0.168844 0.09362793
v 0 -0.2100629 0
v 0 0.07245601 -0.2142372
v -0.1514893 0.07245601 -0.1514893
v 0.1514893 0.07245601 -0.1514893
v -0.2142382 -0.06093132 0
v -0.2142382 0.07245601 0
v -0.1324062 -0.168844 0
v 0 -0.2100629 0
v 0.1514893 -0.06093132 0.1514893
v 0.2142382 0.07245601 0
v 0 -0.168844 0.1324081
v 0 -0.2100629 0
v 0 0.1803687 -0.1324081
v -0.09362507 0.1803687 -0.09362793
v 0 0.2215876 0
v 0.09362507 0.1803687 -0.09362793
v -0.1324062 0.1803687 0
v 0.1324062 0.1803687 0
v 0.1514893 0.07245601 0.1514893
v 0 -0.06093132 0.2142372
v -0.09362507 0.1803687 0.09362793
v 0.09362507 0.1803687 0.09362793
v -0.09362507 -0.168844 0.09362793
v 0 -0.2100629 0
v -0.1514893 -0.06093132 0.1514893
v 0 0.07245601 0.2142372
v 0 0.1803687 0.1324081
v -0.1514893 0.07245601 0.1514893
v -0.09362507 -0.168844 0.09362793
v 0 -0.2100629 0
vt 3.837908 0.8390111
vt 3.775501 0.8033069
vt 3.811682 0.8792864
vt 3.883484 0.885941
vt 3.844175 0.9439446
vt 3.840232 0.8411864
vt 3.780038 0.8040895
vt 3.943408 0.8453871
vt 3.879981 0.8138673
vt 3.800964 0.7748102
vt 3.885108 0.8856148
vt 3.877377 0.8138911
vt 3.807434 0.779821
vt 3.925764 0.9263881
vt 3.993331 0.8836073
vt 3.883318 0.9947567
vt 3.888565 0.8847328
vt 3.926378 0.9248514
vt 3.844387 0.8415592
vt 3.813544 0.7847024
vt 3.941006 0.8451542
vt 3.924506 0.9264605
vt 3.83694 0.8409073
vt 3.799034 0.7809371
vt 3.959023 0.957458
vt 3.992791 0.9437857
vt 3.992188 0.9921875
vt 3.943893 0.9933985
vt 3.955367 0.9580634
vt 3.95504 0.9588543
vt 3.991466 0.8824028
vt 3.883412 0.8853171
vt 3.942414 0.9907933
vt 3.991773 0.9425243
vt 3.811204 0.8807607
vt 3.77519 0.808719
vt 3.846595 0.9415089
vt 3.925456 0.9240418
vt 3.957928 0.9552082
vt 3.883156 0.9892358
vt 3.817646 0.8779842
vt 3.787541 0.8076037
vn 0 -0.6980388 -0.71606
vn 0 -1 0
vn 0.5063316 -0.6980408 -0.5063273
vn 0 -0.2618882 -0.9650981
vn 0.6824278 -0.2618917 -0.6824259
vn 0.7160524 -0.6980466 0
vn 0 -1 0
vn -0.6824276 -0.2618912 -0.6824262
vn -0.5063314 -0.6980401 -0.5063285
vn 0 -1 0
vn 0.9650968 -0.2618933 0
vn 0.5063314 -0.6980401 0.5063285
vn 0 -1 0
vn 0 0.2618887 -0.965098
vn -0.6824277 0.2618922 -0.6824258
vn 0.6824275 0.2618912 -0.6824262
vn -0.9650968 -0.2618933 0
vn -0.9650968 0.2618932 0
vn -0.7160524 -0.6980466 0
vn 0 -1 0
vn 0.6824276 -0.2618912 0.6824262
vn 0.9650968 0.2618932 0
vn 0 -0.6980388 0.71606
vn 0 -1 0
vn 0 0.6980395 -0.7160591
vn -0.5063312 0.6980416 -0.5063267
vn 0 1 0
vn 0.5063313 0.69804 -0.5063286
vn -0.7160524 0.6980465 0
vn 0.7160524 0.6980465 0
vn 0.6824277 0.2618922 0.6824258
vn 0 -0.2618882 0.9650981
vn -0.5063313 0.69804 0.5063286
vn 0.5063312 0.6980416 0.5063267
vn -0.5063316 -0.6980408 0.5063273
vn 0 -1 0
vn -0.6824278 -0.2618917 0.6824259
vn 0 0.2618887 0.965098
vn 0 0.6980395 0.7160591
vn -0.6824276 0.2618912 0.6824263
vn -0.5063316 -0.6980408 0.5063273
vn 0 -1 0
g Plant_3_0
f 3/3/3 2/2/2 1/1/1
f 1/1/1 4/4/4 3/3/3
f 4/4/4 5/5/5 3/3/3
f 3/3/3 5/5/5 6/6/6
f 6/6/6 7/7/7 3/3/3
f 8/8/8 4/4/4 1/1/1
f 9/9/9 8/8/8 1/1/1
f 1/1/1 10/10/10 9/9/9
f 5/5/5 11/11/11 6/6/6
f 6/6/6 11/11/11 12/12/12
f 12/12/12 13/13/13 6/6/6
f 4/4/4 14/14/14 5/5/5
f 8/8/8 15/15/15 4/4/4
f 15/15/15 14/14/14 4/4/4
f 5/5/5 16/16/16 11/11/11
f 14/14/14 16/16/16 5/5/5
f 17/17/17 8/8/8 9/9/9
f 18/18/18 15/15/15 8/8/8
f 17/17/17 18/18/18 8/8/8
f 19/19/19 17/17/17 9/9/9
f 9/9/9 20/20/20 19/19/19
f 11/11/11 21/21/21 12/12/12
f 16/16/16 22/22/22 11/11/11
f 11/11/11 22/22/22 21/21/21
f 12/12/12 21/21/21 23/23/23
f 23/23/23 24/24/24 12/12/12
f 14/14/14 25/25/25 16/16/16
f 15/15/15 26/26/26 14/14/14
f 26/26/26 25/25/25 14/14/14
f 26/26/26 27/27/27 25/25/25
f 25/25/25 28/28/28 16/16/16
f 16/16/16 28/28/28 22/22/22
f 25/25/25 27/27/27 28/28/28
f 29/29/29 26/26/26 15/15/15
f 29/29/29 27/27/27 26/26/26
f 18/18/18 29/29/29 15/15/15
f 28/28/28 30/30/30 22/22/22
f 28/28/28 27/27/27 30/30/30
f 22/22/22 31/31/31 21/21/21
f 22/22/22 30/30/30 31/31/31
f 21/21/21 32/32/32 23/23/23
f 21/21/21 31/31/31 32/32/32
f 33/33/33 29/29/29 18/18/18
f 33/33/33 27/27/27 29/29/29
f 30/30/30 34/34/34 31/31/31
f 30/30/30 27/27/27 34/34/34
f 23/23/23 32/32/32 35/35/35
f 35/35/35 36/36/36 23/23/23
f 32/32/32 37/37/37 35/35/35
f 31/31/31 38/38/38 32/32/32
f 31/31/31 34/34/34 38/38/38
f 32/32/32 38/38/38 37/37/37
f 34/34/34 27/27/27 39/39/39
f 39/39/39 27/27/27 33/33/33
f 34/34/34 39/39/39 38/38/38
f 40/40/40 33/33/33 18/18/18
f 39/39/39 33/33/33 40/40/40
f 38/38/38 39/39/39 40/40/40
f 38/38/38 40/40/40 37/37/37
f 40/40/40 18/18/18 17/17/17
f 37/37/37 40/40/40 17/17/17
f 37/37/37 17/17/17 19/19/19
f 41/41/41 37/37/37 19/19/19
f 19/19/19 42/42/42 41/41/41
