g PlantGroup_1
v -0.01393734 0.007644579 0.04814019
v -0.03343426 0.1146195 0.04020943
v -0.03771244 0.1146195 0.1759325
v -0.01773297 0.007644579 0.1680285
v 0.07617915 0.007644579 -0.03654609
v 0.05827964 0.1146195 0.271979
v 0.06707156 0.007644579 0.2528559
v 0.06860507 0.1146195 -0.05568442
v 0.199844 0.007644579 -0.03645454
v 0.1983086 0.1146195 0.2720858
v 0.1907355 0.007644579 0.2529475
v 0.2086369 0.1146195 -0.05558143
v 0.2846485 0.007644579 0.04836907
v 0.3003508 0.1146195 0.1761919
v 0.2808529 0.007644579 0.1682574
v 0.304628 0.1146195 0.04046502
v -0.03402554 0.2500319 0.1744753
v 0.05989994 0.2500319 0.2684504
v -0.02983891 0.2500319 0.04167428
v 0.1969124 0.2500319 0.2685534
v 0.07000221 0.2500319 -0.05215583
v 0.2967564 0.2500319 0.1747233
v 0.3009411 0.2500319 0.04192223
v 0.2070176 0.2500319 -0.05205283
v 0.02994693 0.3456643 0.149161
v 0.08799709 0.3456643 0.2072398
v 0.1334568 0.3799309 0.1081988
v 0.03253521 0.3456643 0.06708398
v 0.1726738 0.3456643 0.2073046
v 0.09423984 0.3456643 0.009092949
v 0.2343804 0.3456643 0.1493136
v 0.1789185 0.3456643 0.009157799
v 0.2369687 0.3456643 0.06724038
v 0.2320868 0.008590013 -0.1480344
v 0.297978 0.008590013 -0.119531
v 0.283569 0.1125739 -0.1044782
v 0.2320868 0.1125739 -0.1267522
v 0.1661955 0.008590013 -0.119531
v 0.3048922 0.1125739 -0.05071006
v 0.3252712 0.008590013 -0.05071006
v 0.1806055 0.1125739 -0.1044782
v 0.1389033 0.008590013 -0.05071006
v 0.2320868 0.1647249 -0.05071006
v 0.283569 0.1125739 0.003058098
v 0.297978 0.008590013 0.01811089
v 0.1592823 0.1125739 -0.05071006
v 0.220801 0.008590013 0.04595818
v 0.2232691 0.1125739 0.02481713
v 0.02087654 0.01084641 -0.2165998
v 0.01534141 0.1014322 -0.224851
v -0.04204689 0.1014322 -0.1452383
v -0.0321325 0.01084641 -0.1430601
v 0.1131445 0.01084641 -0.2316106
v -0.02331292 0.1014322 -0.04890189
v 0.0004145001 0.01084641 -0.03570686
v 0.1152293 0.1014322 -0.2411054
v 0.1906229 0.01084641 -0.1793073
v 0.06056465 0.1014322 0.007723473
v 0.1335074 0.01084641 -0.008508064
v 0.1991068 0.1014322 -0.1844801
v 0.2079264 0.01084641 -0.09031806
v 0.2178408 0.1014322 -0.08814368
v 0.1604525 0.1014322 -0.008530952
v 0.040671 0.1788879 -0.1870893
v 0.003317485 0.1788879 -0.1352705
v 0.08789695 0.2079948 -0.1166891
v 0.1056887 0.1788879 -0.1976713
v 0.01550926 0.1788879 -0.07256446
v 0.1602847 0.1788879 -0.1608137
v 0.0701052 0.1788879 -0.03571067
v 0.1724764 0.1788879 -0.09810767
v 0.1351229 0.1788879 -0.04628883
vt 0.8125826 2.882412
vt 0.840867 0.9446046
vt 0.8790178 0.8853461
vt 0.8314155 2.83842
vt 0.8420616 2.843442
vt 0.9386702 0.8431609
vt 0.8765637 2.818471
vt 0.8832439 0.884016
vt 0.876636 2.818408
vt 0.8837345 0.8863223
vt 0.8414963 2.848625
vt 0.9385486 0.8435723
vt 0.8354204 2.848574
vt 0.843632 0.9462379
vt 0.8139454 2.887362
vt 0.8794945 0.8876775
vt 0.9231095 0.9257224
vt 0.9908948 0.8805347
vt 0.8815005 0.9960218
vt 0.9240983 0.9256149
vt 0.923615 0.9256406
vt 0.8828533 0.9935225
vt 0.9237972 0.9257357
vt 0.9908341 0.8806518
vt 0.9722025 0.9705537
vt 0.9929788 0.9697275
vt 0.9934987 0.9921342
vt 0.9710747 0.9929128
vt 0.9705468 0.9714947
vt 0.970347 0.9718175
vt 0.9711049 0.9924155
vt 0.9929602 0.9697302
vt 0.9723948 0.9703383
vt 2.857712 2.93851
vt 2.894724 2.892673
vt 2.967443 0.9657937
vt 2.96418 0.9911377
vt 2.895225 2.892712
vt 2.995053 0.9635174
vt 2.951349 2.852106
vt 2.967739 0.9659077
vt 2.939633 2.857924
vt 2.993017 0.9916562
vt 2.970825 0.9628584
vt 2.904633 2.884419
vt 2.992385 0.9638516
vt 2.859448 2.935061
vt 2.964057 0.9907376
vt 1.856274 2.932429
vt 1.889163 0.9577384
vt 1.915765 0.918081
vt 1.883444 2.885646
vt 1.887636 2.884489
vt 1.95737 0.8887812
vt 1.933575 2.853596
vt 1.918681 0.9159513
vt 1.934667 2.854685
vt 1.919509 0.9166307
vt 1.855004 2.93697
vt 1.957296 0.8890291
vt 1.883601 2.888043
vt 1.916573 0.9186574
vt 1.89111 0.957622
vt 1.966527 0.9924763
vt 1.968214 0.9655369
vt 1.993358 0.9918259
vt 1.965872 0.9670594
vt 1.993197 0.9649403
vt 1.993173 0.964947
vt 1.966171 0.9663065
vt 1.968519 0.9649063
vt 1.966416 0.9915245
vn -0.8910676 -0.1928238 -0.4108742
vn -0.9072527 -0.06560484 -0.4154379
vn -0.9277622 -0.06692728 0.3671212
vn -0.9116236 -0.1970016 0.3607392
vn -0.3613197 -0.1889341 -0.9131002
vn -0.3773263 -0.06559565 0.9237543
vn -0.3686489 -0.1928144 0.9093518
vn -0.3671976 -0.06435526 -0.927914
vn 0.3686147 -0.1928365 -0.9093609
vn 0.3671851 -0.06434413 0.9279196
vn 0.36133 -0.1889292 0.9130971
vn 0.3773026 -0.06561053 -0.9237629
vn 0.9116198 -0.1970133 -0.3607424
vn 0.9072517 -0.06560202 0.4154402
vn 0.8910736 -0.1928284 0.410859
vn 0.9277636 -0.06693269 -0.3671168
vn -0.9015915 0.244629 0.3567764
vn -0.3678279 0.2408549 0.8981601
vn -0.882818 0.2408562 -0.4032625
vn 0.3574472 0.2372181 0.9033045
vn -0.3574633 0.2372067 -0.9033011
vn 0.8828194 0.240859 0.4032578
vn 0.9015942 0.2446266 -0.3567713
vn 0.3678168 0.2408538 -0.898165
vn -0.6817738 0.6799964 0.2697948
vn -0.2767075 0.6733011 0.6856374
vn 0 1 0
vn -0.6709415 0.67331 -0.3106303
vn 0.2741646 0.6669443 0.6928341
vn -0.2741727 0.6669439 -0.6928312
vn 0.6709435 0.6733052 0.3106364
vn 0.276697 0.6733088 -0.685634
vn 0.6817759 0.6799985 -0.2697848
vn 0 0.2005289 -0.9796878
vn 0.7069689 0.1963204 -0.6794507
vn 0.6761363 0.3519045 -0.6473044
vn 0 0.3569424 -0.9341264
vn -0.7069743 0.1963148 -0.6794468
vn 0.9378369 0.3470763 0
vn 0.9813294 0.1923344 0
vn -0.6761389 0.3519026 -0.6473027
vn -0.9365371 0.1835442 0.29868
vn -0.08547506 0.9921489 0.09129398
vn 0.6363934 0.3493152 0.6877371
vn 0.6656927 0.19646 0.7199004
vn -0.9011706 0.3155322 0.2972052
vn -0.3799534 0.1929522 0.9046574
vn -0.3754324 0.3245059 0.8681858
vn -0.5165565 -0.1089313 -0.8492957
vn -0.515636 0.1649786 -0.8407743
vn -0.9733396 0.14034 -0.181424
vn -0.9763972 -0.1447624 -0.1602882
vn 0.2133677 -0.1066828 -0.9711297
vn -0.8653479 0.1754194 0.4694689
vn -0.773974 -0.198131 0.601422
vn 0.2117337 0.16248 -0.9637266
vn 0.8249793 -0.1089375 -0.5545644
vn -0.2067169 0.2065895 0.9563414
vn 0.4541676 -0.2044562 0.8671387
vn 0.8205667 0.1649664 -0.5472261
vn 0.9528499 -0.1480801 0.2648573
vn 0.9597501 0.1392605 0.2438981
vn 0.5855495 0.1721078 0.7921557
vn -0.4048417 0.6242453 -0.6681473
vn -0.7577487 0.6309555 -0.1664694
vn 0 1 0
vn 0.1687299 0.6178437 -0.767984
vn -0.6476106 0.6242327 0.4369599
vn 0.6476178 0.6242369 -0.4369434
vn -0.1687054 0.6178372 0.7679946
vn 0.7577345 0.6309695 0.1664804
vn 0.4048294 0.6242339 0.6681656
g PlantGroup_1_0
f 3/3/3 2/2/2 1/1/1
f 4/4/4 3/3/3 1/1/1
f 1/1/1 2/2/2 5/5/5
f 6/6/6 3/3/3 4/4/4
f 7/7/7 6/6/6 4/4/4
f 2/2/2 8/8/8 5/5/5
f 5/5/5 8/8/8 9/9/9
f 10/10/10 6/6/6 7/7/7
f 11/11/11 10/10/10 7/7/7
f 8/8/8 12/12/12 9/9/9
f 9/9/9 12/12/12 13/13/13
f 14/14/14 10/10/10 11/11/11
f 15/15/15 14/14/14 11/11/11
f 13/13/13 16/16/16 15/15/15
f 12/12/12 16/16/16 13/13/13
f 16/16/16 14/14/14 15/15/15
f 3/3/3 17/17/17 2/2/2
f 6/6/6 18/18/18 3/3/3
f 18/18/18 17/17/17 3/3/3
f 2/2/2 19/19/19 8/8/8
f 17/17/17 19/19/19 2/2/2
f 10/10/10 20/20/20 6/6/6
f 20/20/20 18/18/18 6/6/6
f 8/8/8 21/21/21 12/12/12
f 19/19/19 21/21/21 8/8/8
f 14/14/14 22/22/22 10/10/10
f 22/22/22 20/20/20 10/10/10
f 16/16/16 23/23/23 14/14/14
f 23/23/23 22/22/22 14/14/14
f 12/12/12 24/24/24 16/16/16
f 21/21/21 24/24/24 12/12/12
f 24/24/24 23/23/23 16/16/16
f 17/17/17 25/25/25 19/19/19
f 18/18/18 26/26/26 17/17/17
f 26/26/26 25/25/25 17/17/17
f 26/26/26 27/27/27 25/25/25
f 25/25/25 28/28/28 19/19/19
f 19/19/19 28/28/28 21/21/21
f 25/25/25 27/27/27 28/28/28
f 29/29/29 26/26/26 18/18/18
f 20/20/20 29/29/29 18/18/18
f 29/29/29 27/27/27 26/26/26
f 28/28/28 30/30/30 21/21/21
f 21/21/21 30/30/30 24/24/24
f 28/28/28 27/27/27 30/30/30
f 31/31/31 29/29/29 20/20/20
f 31/31/31 27/27/27 29/29/29
f 22/22/22 31/31/31 20/20/20
f 30/30/30 32/32/32 24/24/24
f 24/24/24 32/32/32 23/23/23
f 30/30/30 27/27/27 32/32/32
f 33/33/33 31/31/31 22/22/22
f 23/23/23 33/33/33 22/22/22
f 32/32/32 33/33/33 23/23/23
f 33/33/33 27/27/27 31/31/31
f 32/32/32 27/27/27 33/33/33
f 36/36/36 35/35/35 34/34/34
f 37/37/37 36/36/36 34/34/34
f 37/37/37 34/34/34 38/38/38
f 36/36/36 39/39/39 35/35/35
f 39/39/39 40/40/40 35/35/35
f 41/41/41 37/37/37 38/38/38
f 41/41/41 38/38/38 42/42/42
f 37/37/37 43/43/43 36/36/36
f 36/36/36 43/43/43 39/39/39
f 41/41/41 43/43/43 37/37/37
f 39/39/39 44/44/44 40/40/40
f 39/39/39 43/43/43 44/44/44
f 44/44/44 45/45/45 40/40/40
f 46/46/46 41/41/41 42/42/42
f 46/46/46 43/43/43 41/41/41
f 42/42/42 47/47/47 46/46/46
f 48/48/48 47/47/47 45/45/45
f 44/44/44 48/48/48 45/45/45
f 44/44/44 43/43/43 48/48/48
f 47/47/47 48/48/48 46/46/46
f 46/46/46 48/48/48 43/43/43
f 51/51/51 50/50/50 49/49/49
f 52/52/52 51/51/51 49/49/49
f 49/49/49 50/50/50 53/53/53
f 54/54/54 51/51/51 52/52/52
f 55/55/55 54/54/54 52/52/52
f 50/50/50 56/56/56 53/53/53
f 53/53/53 56/56/56 57/57/57
f 54/54/54 55/55/55 58/58/58
f 55/55/55 59/59/59 58/58/58
f 56/56/56 60/60/60 57/57/57
f 57/57/57 60/60/60 61/61/61
f 61/61/61 62/62/62 59/59/59
f 60/60/60 62/62/62 61/61/61
f 59/59/59 63/63/63 58/58/58
f 62/62/62 63/63/63 59/59/59
f 64/64/64 50/50/50 51/51/51
f 65/65/65 51/51/51 54/54/54
f 65/65/65 64/64/64 51/51/51
f 65/65/65 66/66/66 64/64/64
f 64/64/64 67/67/67 50/50/50
f 67/67/67 56/56/56 50/50/50
f 64/64/64 66/66/66 67/67/67
f 68/68/68 65/65/65 54/54/54
f 68/68/68 54/54/54 58/58/58
f 68/68/68 66/66/66 65/65/65
f 67/67/67 69/69/69 56/56/56
f 69/69/69 60/60/60 56/56/56
f 67/67/67 66/66/66 69/69/69
f 70/70/70 68/68/68 58/58/58
f 70/70/70 58/58/58 63/63/63
f 70/70/70 66/66/66 68/68/68
f 69/69/69 71/71/71 60/60/60
f 71/71/71 62/62/62 60/60/60
f 69/69/69 66/66/66 71/71/71
f 72/72/72 70/70/70 63/63/63
f 72/72/72 63/63/63 62/62/62
f 71/71/71 72/72/72 62/62/62
f 72/72/72 66/66/66 70/70/70
f 71/71/71 66/66/66 72/72/72
