g Splash_Ring
v -0.3822184 0.3822184 -0.02869415
v 0 0.5 -0.02869415
v 0 0 0.07181931
v -0.5 0 -0.02869415
v 0 0 0.07181931
v 0.3822184 -0.3822184 -0.02869415
v 0 -0.5 -0.02869415
v 0.5 0 -0.02869415
v 0 0 0.07181931
v 0.3822184 0.3822184 -0.02869415
v 0.5 0 -0.02869415
v 0 0.5 -0.02869415
v -0.3822184 -0.3822184 -0.02869415
v -0.5 0 -0.02869415
v 0 0 0.07181931
v 0 -0.5 -0.02869415
vt 0.3750542 0.6249459
vt 0.4873411 0.9893333
vt 0.01066682 0.9893332
vt 0.01066687 0.512659
vt 0.01066682 0.9893332
vt 0.3750542 0.6249459
vt 0.4873411 0.9893333
vt 0.01066691 0.512659
vt 0.01066682 0.9893332
vt 0.3750542 0.6249459
vt 0.01066691 0.512659
vt 0.4873411 0.9893333
vt 0.3750542 0.6249459
vt 0.01066687 0.512659
vt 0.01066682 0.9893332
vt 0.4873411 0.9893333
vn -0.1292613 0.1292712 0.9831482
vn 0 0.1970839 0.9803867
vn 0 0 1
vn -0.1970639 0 0.9803905
vn 0 0 1
vn 0.1292662 -0.1292711 0.9831476
vn 0 -0.1970839 0.9803867
vn 0.1970639 0 0.9803905
vn 0 0 1
vn 0.1292613 0.1292712 0.9831482
vn 0.1970639 0 0.9803905
vn 0 0.1970839 0.9803867
vn -0.1292662 -0.1292711 0.9831476
vn -0.1970639 0 0.9803905
vn 0 0 1
vn 0 -0.1970839 0.9803867
g Splash_Ring_0
f 3/3/3 2/2/2 1/1/1
f 3/3/3 1/1/1 4/4/4
f 7/7/7 6/6/6 5/5/5
f 6/6/6 8/8/8 5/5/5
f 11/11/11 10/10/10 9/9/9
f 9/9/9 10/10/10 12/12/12
f 15/15/15 14/14/14 13/13/13
f 16/16/16 15/15/15 13/13/13
