g windows_1
v -0.5334 -0.5334 0.1009138
v 0.5334 -0.5334 0.1009138
v 0.5334 -0.5333999 -0.1009137
v -0.5334 -0.5333999 -0.1009137
v -0.5334 0.5334 0.1009138
v -0.5334 0.5334 -0.1009136
v 0.5334 0.5334 -0.1009136
v 0.5334 0.5334 0.1009138
v -0.5334 -0.5334 0.1009138
v -0.5334 0.5334 0.1009138
v 0.5334 0.5334 0.1009138
v 0.5334 -0.5334 0.1009138
v 0.5334 -0.5334 0.1009138
v 0.5334 0.5334 0.1009138
v 0.5334 0.5334 -0.1009136
v 0.5334 -0.5333999 -0.1009137
v 0.5334 -0.5333999 -0.1009137
v 0.5334 0.5334 -0.1009136
v -0.5334 0.5334 -0.1009136
v -0.5334 -0.5333999 -0.1009137
v -0.5334 -0.5333999 -0.1009137
v -0.5334 0.5334 -0.1009136
v -0.5334 0.5334 0.1009138
v -0.5334 -0.5334 0.1009138
vt 0.9003906 0.512207
vt 0.9003906 0.9633789
vt 0.9858398 0.9633789
vt 0.9858398 0.512207
vt 0.4484863 0.1005249
vt 0.4484863 0.02157593
vt 0.03137207 0.02157593
vt 0.03137207 0.1005249
vt 0.008178711 0.1295166
vt 0.008178711 0.996582
vt 0.875 0.996582
vt 0.875 0.1295166
vt 0.449707 0.1005249
vt 0.8666992 0.1005249
vt 0.8666992 0.02157593
vt 0.449707 0.02157593
vt 0.875 0.1295166
vt 0.875 0.996582
vt 0.008178711 0.996582
vt 0.008178711 0.1295166
vt 0.9858398 0.5112305
vt 0.9858398 0.05984497
vt 0.9003906 0.05984497
vt 0.9003906 0.5112305
vn 0 -1 0
vn 0 -1 0
vn 0 -1 0
vn 0 -1 0
vn 0 1 0
vn 0 1 0
vn 0 1 0
vn 0 1 0
vn 0 0 1
vn 0 0 1
vn 0 0 1
vn 0 0 1
vn 1 0 0
vn 1 0 0
vn 1 0 0
vn 1 0 0
vn 0 0 -1
vn 0 0 -1
vn 0 0 -1
vn 0 0 -1
vn -1 0 0
vn -1 0 0
vn -1 0 0
vn -1 0 0
g windows_1_0
f 3/3/3 2/2/2 1/1/1
f 4/4/4 3/3/3 1/1/1
f 7/7/7 6/6/6 5/5/5
f 8/8/8 7/7/7 5/5/5
f 11/11/11 10/10/10 9/9/9
f 12/12/12 11/11/11 9/9/9
f 15/15/15 14/14/14 13/13/13
f 16/16/16 15/15/15 13/13/13
f 19/19/19 18/18/18 17/17/17
f 20/20/20 19/19/19 17/17/17
f 23/23/23 22/22/22 21/21/21
f 24/24/24 23/23/23 21/21/21
